<svg xmlns="http://www.w3.org/2000/svg" viewBox="0 0 150.5 150.8"><path d="M139.2 159.8h-78a36.36 36.36 0 0 1-36.3-36.3V45.2A36.23 36.23 0 0 1 61 9h78.3a36.21 36.21 0 0 1 36.1 36.1v78.5a36.32 36.32 0 0 1-36.2 36.2Z" transform="translate(-24.9 -9)" style="fill:#c40e0e"/><path d="M100.1 24a54.66 54.66 0 0 1 31.1 9.6 3.09 3.09 0 0 1-3.5 5.1 48.74 48.74 0 0 0-55 0 3.09 3.09 0 0 1-3.5-5.1 53.81 53.81 0 0 1 30.9-9.6ZM77.4 44.3a3.14 3.14 0 0 0 3.8 5 31.45 31.45 0 0 1 37.9-.1 3.14 3.14 0 0 0 3.8-5 38.05 38.05 0 0 0-45.5.1Zm7 15.2a3.07 3.07 0 0 0 4.4.5 18.14 18.14 0 0 1 22.6.1 3.13 3.13 0 1 0 3.9-4.9 24.45 24.45 0 0 0-30.4-.2 3.39 3.39 0 0 0-.5 4.5Zm15.7 79a48.06 48.06 0 0 1-27.5-8.5 3.09 3.09 0 0 0-3.5 5.1 55 55 0 0 0 62.1 0 3.09 3.09 0 1 0-3.5-5.1 49.37 49.37 0 0 1-27.6 8.5Zm.1-12.7a31.09 31.09 0 0 1-19-6.4 3.14 3.14 0 0 0-3.8 5 37.7 37.7 0 0 0 45.4.2 3.14 3.14 0 0 0-3.8-5 31.4 31.4 0 0 1-18.8 6.2Zm-.2-13.3a17.56 17.56 0 0 1-11.2-3.9 3.13 3.13 0 0 0-3.9 4.9 24.45 24.45 0 0 0 30.4-.2 3.13 3.13 0 1 0-3.9-4.9 17.53 17.53 0 0 1-11.4 4.1Z" transform="translate(-24.9 -9)" style="fill:#ff4848"/><path d="M68.6 80.8c0 7.5-6.2 12.6-19.4 12.6-8.3 0-17.3-2.5-18.1-12.2h13.6a4.3 4.3 0 0 0 1.5 3.3 5.62 5.62 0 0 0 3.5 1.1c2.2 0 4.5-.7 4.5-3.2 0-5.8-22.1-1.2-22.1-15.1 0-9.2 9.6-11.9 17.1-11.9 7.8 0 17.1 1.8 17.9 11.4h-13a3.39 3.39 0 0 0-1.4-2.6 4.76 4.76 0 0 0-2.9-.9c-2.5 0-4.1.8-4.1 2.5.1 4.9 22.9 1.5 22.9 15Zm40.3-24.5H93.2l-4.8 9-4.5-9H68l11.9 17.2L67 92.4h15.8L88 82l5.1 10.3h16L96.6 73.4Zm46.7-1c-5.2 0-7.9 2.3-11 6.6-1.7-3.9-5.3-6.6-11.3-6.6-5.2 0-8.4 3.6-10.2 6.4v-5.4H110v36.1h14.3V74.5c0-4.3.1-8.1 4-8s4.1 2.1 4.1 7.4v18.4h14.3V74.5c0-4.3 0-8 4-8 3.8 0 4.1 2.1 4.1 7.4v18.4h14.3V71c.1-9.8-4.4-15.7-13.5-15.7Z" transform="translate(-24.9 -9)" style="fill:#fff"/><text transform="translate(6.46 104.82)" style="font-size:21.65px;fill:#180a0c;font-family:Arial-Black,Arial Black;font-weight:800"><tspan style="letter-spacing:-.02em">A</tspan><tspan x="16.45" y="0">CTI</tspan><tspan x="57.35" y="0" style="letter-spacing:-.06em">V</tspan><tspan x="72.95" y="0" style="letter-spacing:-.07em">A</tspan><tspan x="88.3" y="0" style="letter-spacing:-.03em">T</tspan><tspan x="103.2" y="0">OR</tspan></text></svg>
