<svg xmlns="http://www.w3.org/2000/svg" viewBox="0 0 150 150"><path d="M113.92 150H36.18A36.2 36.2 0 0 1 0 113.89V36A36.08 36.08 0 0 1 36 0h78a36.05 36.05 0 0 1 36 35.91V114a36.17 36.17 0 0 1-36.08 36Z" style="fill:#c40e0e"/><path d="M75 26.89a43.6 43.6 0 0 1 24.79 7.66A2.46 2.46 0 1 1 97 38.61a38.86 38.86 0 0 0-43.84 0 2.46 2.46 0 1 1-2.79-4.06A42.93 42.93 0 0 1 75 26.89ZM56.87 43.08a2.5 2.5 0 1 0 3 4A25.07 25.07 0 0 1 90.1 47a2.5 2.5 0 1 0 3-4 30.32 30.32 0 0 0-36.23.08Zm5.58 12.11a2.44 2.44 0 0 0 3.43.46l.07-.06a14.47 14.47 0 0 1 18 .08 2.5 2.5 0 0 0 3.11-3.91 19.52 19.52 0 0 0-24.24-.16 2.71 2.71 0 0 0-.37 3.59Zm12.51 63a38.28 38.28 0 0 1-21.96-6.8 2.46 2.46 0 1 0-2.79 4.06 43.83 43.83 0 0 0 49.5 0 2.46 2.46 0 1 0-2.71-4.06 39.31 39.31 0 0 1-22 6.77ZM75 108a24.79 24.79 0 0 1-15.14-5.1 2.5 2.5 0 1 0-3 4 30 30 0 0 0 36.18.16 2.5 2.5 0 1 0-3-4A25.06 25.06 0 0 1 75 108Zm-.16-10.6A14 14 0 0 1 66 94.33a2.49 2.49 0 0 0-3.11 3.9 19.49 19.49 0 0 0 24.24-.16 2.49 2.49 0 0 0-3.13-3.9 14 14 0 0 1-9.12 3.27Z" style="fill:#ff4848"/><path d="M49.89 73c0 6-4.94 10-15.46 10-6.62 0-13.79-2-14.43-9.73h10.84A3.42 3.42 0 0 0 32 76a4.42 4.42 0 0 0 2.79.88c1.75 0 3.58-.56 3.58-2.55 0-4.62-17.61-1-17.61-12 0-7.33 7.65-9.48 13.63-9.48 6.21 0 13.63 1.43 14.27 9.08H38.33a2.69 2.69 0 0 0-1.11-2.07 3.84 3.84 0 0 0-2.31-.72c-2 0-3.27.64-3.27 2C31.72 65 49.89 62.27 49.89 73ZM82 53.5H69.5l-3.83 7.18-3.58-7.18H49.41l9.49 13.71-10.28 15.07h12.59L65.35 74l4.07 8.21h12.75l-10-15.07Zm37.23-.79c-4.15 0-6.3 1.83-8.77 5.26-1.36-3.11-4.22-5.26-9-5.26-4.14 0-6.69 2.87-8.13 5.1V53.5H82.89v28.78h11.4V68c0-3.43.08-6.45 3.19-6.38s3.27 1.68 3.27 5.9V82.2h11.39V68c0-3.43 0-6.38 3.19-6.38 3 0 3.27 1.68 3.27 5.9V82.2H130v-17c.08-7.81-3.51-12.51-10.76-12.51Z" style="fill:#fff"/><text transform="translate(20.35 97.09)" style="font-size:17.14px;font-family:Arial-Black,Arial Black;font-weight:800"><tspan style="letter-spacing:-.02em">A</tspan><tspan x="13.02" y="0">CTI</tspan><tspan x="45.4" y="0" style="letter-spacing:-.06em">V</tspan><tspan x="57.75" y="0" style="letter-spacing:-.07em">A</tspan><tspan x="69.9" y="0" style="letter-spacing:-.03em">T</tspan><tspan x="81.69" y="0">OR</tspan></text></svg>
